HIERARCHY
ROOT Hips
{
	OFFSET 0.000000 0.000000 0.000000
	CHANNELS 6 Xposition Yposition Zposition Xrotation Yrotation Zrotation
	JOINT LeftUpLeg_virtual
	{
		OFFSET 0.000000 0.000000 0.000000
		CHANNELS 3 Xrotation Yrotation Zrotation
		JOINT LeftUpLeg
		{
			OFFSET 15.427100 -6.655098 0.678600
			CHANNELS 3 Xrotation Yrotation Zrotation
			JOINT LeftLeg
			{
				OFFSET 4.081073 -39.591068 13.024000
				CHANNELS 3 Xrotation Yrotation Zrotation
				JOINT LeftFoot
				{
					OFFSET -4.081074 -37.707932 -15.979700
					CHANNELS 3 Xrotation Yrotation Zrotation
					JOINT LeftToeBase
					{
						OFFSET 5.346399 -15.068900 20.645000
						CHANNELS 3 Xrotation Yrotation Zrotation
						JOINT LeftToe_End
						{
							OFFSET 2.754700 0.931300 11.300900
							CHANNELS 3 Xrotation Yrotation Zrotation
							End Site
							{
								OFFSET 0 0 0
							}
						}
					}
				}
			}
		}
	}
	JOINT RightUpLeg_virtual
	{
		OFFSET 0.000000 0.000000 0.000000
		CHANNELS 3 Xrotation Yrotation Zrotation
		JOINT RightUpLeg
		{
			OFFSET -15.569500 -6.655098 0.678600
			CHANNELS 3 Xrotation Yrotation Zrotation
			JOINT RightLeg
			{
				OFFSET -4.081825 -39.591045 13.023800
				CHANNELS 3 Xrotation Yrotation Zrotation
				JOINT RightFoot
				{
					OFFSET 4.081824 -37.707954 -15.979600
					CHANNELS 3 Xrotation Yrotation Zrotation
					JOINT RightToeBase
					{
						OFFSET -5.346400 -15.068900 20.645000
						CHANNELS 3 Xrotation Yrotation Zrotation
						JOINT RightToe_End
						{
							OFFSET -2.754700 0.931300 11.300900
							CHANNELS 3 Xrotation Yrotation Zrotation
							End Site
							{
								OFFSET 0 0 0
							}
						}
					}
				}
			}
		}
	}
	JOINT Spine_virtual
	{
		OFFSET 0.000000 0.000000 0.000000
		CHANNELS 3 Xrotation Yrotation Zrotation
		JOINT Spine
		{
			OFFSET -0.279200 12.230698 -2.892100
			CHANNELS 3 Xrotation Yrotation Zrotation
			JOINT Spine1
			{
				OFFSET -0.232667 10.192268 -1.242267
				CHANNELS 3 Xrotation Yrotation Zrotation
				JOINT Spine1_split
				{
					OFFSET -0.232667 10.192268 -1.242267
					CHANNELS 3 Xrotation Yrotation Zrotation
					JOINT Spine2
					{
						OFFSET -0.232667 10.192268 -1.242267
						CHANNELS 3 Xrotation Yrotation Zrotation
						JOINT Neck_virtual
						{
							OFFSET 0.000000 0.000000 0.000000
							CHANNELS 3 Xrotation Yrotation Zrotation
							JOINT Neck
							{
								OFFSET -0.418800 17.814194 8.416900
								CHANNELS 3 Xrotation Yrotation Zrotation
								JOINT Head
								{
									OFFSET 0.000000 7.031097 3.806800
									CHANNELS 3 Xrotation Yrotation Zrotation
									JOINT HeadTop_End
									{
										OFFSET 0.000000 24.646606 12.978600
										CHANNELS 3 Xrotation Yrotation Zrotation
										End Site
										{
											OFFSET 0 0 0
										}
									}
								}
							}
						}
						JOINT LeftShoulder_virtual
						{
							OFFSET 0.000000 0.000000 0.000000
							CHANNELS 3 Xrotation Yrotation Zrotation
							JOINT LeftShoulder
							{
								OFFSET 8.476499 7.247704 -3.868750
								CHANNELS 3 Xrotation Yrotation Zrotation
								JOINT LeftShoulder_split
								{
									OFFSET 8.476499 7.247704 -3.868750
									CHANNELS 3 Xrotation Yrotation Zrotation
									JOINT LeftArm
									{
										OFFSET 9.308998 -2.777710 0.208600
										CHANNELS 3 Xrotation Yrotation Zrotation
										JOINT LeftForeArm
										{
											OFFSET 29.972298 0.000000 0.000000
											CHANNELS 3 Xrotation Yrotation Zrotation
											JOINT LeftHand
											{
												OFFSET 26.026505 0.000000 0.000000
												CHANNELS 3 Xrotation Yrotation Zrotation
												End Site
												{
													OFFSET 0 0 0
												}
											}
										}
									}
								}
							}
						}
						JOINT RightShoulder_virtual
						{
							OFFSET 0.000000 0.000000 0.000000
							CHANNELS 3 Xrotation Yrotation Zrotation
							JOINT RightShoulder
							{
								OFFSET -7.570500 7.247704 -3.868750
								CHANNELS 3 Xrotation Yrotation Zrotation
								JOINT RightShoulder_split
								{
									OFFSET -7.570500 7.247704 -3.868750
									CHANNELS 3 Xrotation Yrotation Zrotation
									JOINT RightArm
									{
										OFFSET -9.308998 -2.777710 0.208500
										CHANNELS 3 Xrotation Yrotation Zrotation
										JOINT RightForeArm
										{
											OFFSET -29.972300 0.000000 0.000000
											CHANNELS 3 Xrotation Yrotation Zrotation
											JOINT RightHand
											{
												OFFSET -26.026505 0.000000 0.000000
												CHANNELS 3 Xrotation Yrotation Zrotation
												End Site
												{
													OFFSET 0 0 0
												}
											}
										}
									}
								}
							}
						}
					}
				}
			}
		}
	}
}
MOTION
Frames: 10
Frame Time: 0.03333333
1.370896 76.076744 2.799538 0.000000 0.000000 0.000000 -4.894757 -35.661060 -0.194066 -32.018848 9.020437 19.104379 49.656838 -0.929593 1.843189 -20.509525 -6.963720 -14.775682 -0.624592 0.421333 0.463980 0.000000 0.000000 0.000000 -6.404815 -36.172614 0.423657 -18.660721 -8.995877 -39.639624 47.684276 -2.894221 -12.131073 -14.848503 -3.639080 30.586758 -3.473560 0.806006 0.424734 0.000000 0.000000 0.000000 -2.512614 -38.622292 0.462267 12.166988 8.772716 -2.452596 1.529247 2.007940 -1.646934 1.809630 -3.932263 -0.637853 0.000000 0.000000 0.000000 0.727877 1.963623 -0.687763 -1.787598 8.270572 4.632947 9.874287 8.000485 -6.256018 0.000000 0.000000 0.000000 1.393894 1.424199 -1.973291 1.341428 -0.377113 -1.493866 -7.992379 1.183838 -5.517717 -45.740503 -5.888570 -48.916995 -168.171852 -76.928284 -165.336586 0.000000 0.000000 0.000000 1.860135 2.833908 0.307857 6.804739 10.804547 -10.807822 5.437150 14.042776 3.568373 -49.041117 31.519212 86.667669 176.879100 66.492916 -179.902456 0.000000 0.000000 0.000000 
1.578947 76.172234 2.080456 0.000000 0.000000 0.000000 -5.582671 -36.162368 0.394796 -30.886296 9.254707 17.785333 50.012943 -0.901171 1.693485 -20.051885 -6.254073 -13.947881 -0.870392 0.413071 0.260864 0.000000 0.000000 0.000000 -7.286263 -36.881515 0.697233 -19.159994 -8.746767 -40.558951 49.353960 -3.533310 -11.884343 -15.313769 -4.516868 28.873768 -0.877024 0.779424 0.510170 0.000000 0.000000 0.000000 -4.355219 -40.359864 0.479634 10.861494 9.095113 -1.905599 1.430107 2.503654 -1.765039 0.136838 -2.734535 -0.411934 0.000000 0.000000 0.000000 1.189268 2.462756 -1.019125 -0.372268 7.799796 4.902000 8.508457 9.483065 -7.108631 0.000000 0.000000 0.000000 2.001728 1.995707 -1.857181 1.248418 -0.059482 -1.583169 -5.718373 0.154890 -7.427584 -44.281230 -6.549468 -52.605618 -168.577361 -79.440141 -165.969690 0.000000 0.000000 0.000000 2.370952 3.073501 -0.231199 6.667148 11.238810 -8.185739 3.424314 12.141286 3.352467 -47.359108 28.911952 81.707893 178.928362 67.019326 178.961393 0.000000 0.000000 0.000000 
1.853833 76.456650 1.364952 0.000000 0.000000 0.000000 -6.783987 -37.445214 1.551966 -28.317611 10.148710 15.396100 49.222677 -1.212741 1.302767 -19.906342 -5.971232 -14.264302 -0.762159 0.338331 0.190798 0.000000 0.000000 0.000000 -8.354576 -38.030015 1.682029 -19.051718 -6.724311 -41.944140 51.167136 -4.538658 -11.903539 -15.511600 -5.937736 27.572391 -0.948729 0.739144 0.770311 0.000000 0.000000 0.000000 -6.756249 -41.906154 0.794214 9.189613 9.963267 -0.797775 1.657333 3.730680 -1.917144 -0.240330 -0.751940 0.217041 0.000000 0.000000 0.000000 1.842588 3.599676 -1.414508 1.199425 6.805024 4.276107 6.081123 11.026207 -9.450620 0.000000 0.000000 0.000000 2.670388 3.320277 -1.754139 0.952741 -0.232127 -2.221472 -4.387745 -2.306735 -7.897393 -40.069797 -8.973613 -58.746225 -168.411865 -83.448984 -166.196712 0.000000 0.000000 0.000000 3.310040 4.028888 -1.003024 6.464231 12.099960 -4.314260 2.757273 10.408401 3.303691 -46.274299 25.051701 73.677401 -179.315279 67.171004 178.089014 0.000000 0.000000 0.000000 
2.190689 76.898491 0.984901 0.000000 0.000000 0.000000 -7.991484 -40.168486 2.996133 -24.877992 11.332861 12.574175 47.463712 -1.583894 0.655580 -20.000655 -5.673985 -15.689952 -0.425884 0.225107 0.219959 0.000000 0.000000 0.000000 -9.208185 -40.204204 3.195574 -18.584431 -3.341208 -43.395101 52.379672 -5.614046 -12.108112 -15.588840 -7.454848 26.348908 -2.431222 0.656644 1.199308 0.000000 0.000000 0.000000 -9.157494 -44.053986 1.320600 7.760280 10.844652 0.876714 2.370500 5.213812 -1.929789 0.847224 0.762472 0.927443 0.000000 0.000000 0.000000 2.816001 4.946907 -1.560759 2.449141 5.646988 3.214746 2.672806 12.603909 -12.517885 0.000000 0.000000 0.000000 3.505872 4.880545 -1.491531 0.436186 -0.762608 -2.839785 -3.560406 -3.393614 -7.491154 -34.148224 -12.313916 -65.067674 -155.336971 -88.331879 -153.464993 0.000000 0.000000 0.000000 4.651447 5.219651 -1.702608 6.195127 13.430652 -0.101302 2.731820 9.210792 3.678798 -47.111588 23.433698 65.510120 -178.971816 68.111814 178.455371 0.000000 0.000000 0.000000 
2.588817 77.395294 0.518246 0.000000 0.000000 0.000000 -8.823708 -45.039876 4.370875 -21.193367 12.526202 10.023094 44.999626 -1.409381 -0.196059 -20.426369 -4.679118 -17.525480 0.024517 0.093337 0.251835 0.000000 0.000000 0.000000 -9.323703 -44.325435 4.931133 -18.415349 0.903856 -44.341199 52.206425 -6.491771 -12.191003 -15.813244 -8.261304 24.710275 -2.281336 0.594675 1.674102 0.000000 0.000000 0.000000 -10.883502 -47.636570 1.987214 6.985720 11.179998 3.007928 3.638303 6.308806 -1.646360 1.666062 1.170971 1.322646 0.000000 0.000000 0.000000 4.260928 5.950620 -1.268301 2.888259 4.368135 2.242714 -1.927642 13.989063 -15.264735 0.000000 0.000000 0.000000 4.710201 6.081030 -0.911602 -0.248944 -1.662087 -2.543895 -2.439289 -2.330967 -6.681311 -27.381822 -15.175830 -69.955091 -7.756112 -86.126165 -5.981509 0.000000 0.000000 0.000000 6.161995 6.103754 -1.944035 5.822296 15.020481 3.534276 3.276394 8.286969 4.504149 -50.423018 27.119722 59.546436 179.543352 70.493126 -179.666528 0.000000 0.000000 0.000000 
3.060006 77.913673 0.178219 0.000000 0.000000 0.000000 -8.985343 -52.617653 5.465265 -17.611880 13.535266 8.331151 42.132804 -0.326232 -1.076151 -21.240003 -2.466827 -19.151811 0.497961 -0.043893 0.215404 0.000000 0.000000 0.000000 -8.650733 -51.068331 6.581898 -19.265247 5.250785 -44.220714 50.652000 -7.030290 -11.835953 -15.981873 -7.577514 22.718264 0.351368 0.626376 2.085832 0.000000 0.000000 0.000000 -11.465798 -53.281653 2.742847 7.308812 10.486669 5.283600 5.437790 6.567052 -1.054554 1.933947 0.403698 1.404788 0.000000 0.000000 0.000000 6.358795 6.196745 -0.532743 2.637818 2.817933 1.749329 -7.741231 14.971027 -16.964875 0.000000 0.000000 0.000000 6.517930 6.552082 -0.004436 -0.959965 -2.833477 -0.759355 -0.797897 0.373190 -5.733530 -20.588314 -16.745092 -73.034769 -5.299303 -80.907436 -3.271947 0.000000 0.000000 0.000000 7.844861 6.283831 -1.525895 5.417122 16.526763 5.995367 4.562911 7.773258 5.036351 -56.741919 37.024854 58.659686 176.107234 74.189720 -176.074067 0.000000 0.000000 0.000000 
3.601561 78.515343 -0.315495 0.000000 0.000000 0.000000 -7.805690 -62.393279 6.694282 -14.449663 14.418142 7.639313 39.293173 1.724130 -1.935119 -22.213133 0.920104 -20.101918 0.722271 -0.201529 0.176999 0.000000 0.000000 0.000000 -6.762451 -60.212380 8.348651 -21.313385 8.988438 -42.619492 48.010814 -6.899853 -11.061747 -15.544879 -4.890591 21.140508 2.976455 0.766067 2.159080 0.000000 0.000000 0.000000 -10.352326 -61.031743 3.960652 8.791559 8.839831 7.607650 7.768507 5.908319 -0.169102 1.369820 0.069891 1.448101 0.000000 0.000000 0.000000 8.980026 5.649938 0.493521 2.145905 1.194454 1.891208 -14.548769 15.500865 -17.183313 0.000000 0.000000 0.000000 9.070055 6.168627 1.162378 -1.462310 -4.200931 2.378500 0.600296 3.358991 -5.132903 -13.378237 -17.603388 -74.983237 -5.542479 -76.853808 -3.192439 0.000000 0.000000 0.000000 9.742008 5.609797 -0.612584 5.092203 17.663694 7.543476 5.481055 7.520369 4.861277 -68.148096 50.700255 65.804775 170.939035 78.338991 -170.827006 0.000000 0.000000 0.000000 
4.163079 79.164856 -0.941635 0.000000 0.000000 0.000000 -4.555567 -72.988351 9.135842 -11.937201 15.233029 7.876563 36.865929 4.376682 -2.634552 -22.862428 4.890854 -20.468762 0.470340 -0.374898 0.222128 0.000000 0.000000 0.000000 -2.719093 -70.854327 11.476314 -24.213366 11.924695 -39.309931 44.614936 -5.930050 -10.061711 -14.533417 -0.129028 20.597952 3.721158 0.960866 1.849059 0.000000 0.000000 0.000000 -6.386535 -70.170959 6.804304 11.402664 6.385892 9.722505 10.449284 4.545735 0.837872 0.220655 -0.250852 1.039356 0.000000 0.000000 0.000000 12.033746 4.422338 1.537218 1.886153 -0.450259 2.536443 -21.726552 15.502204 -15.929091 0.000000 0.000000 0.000000 12.129888 5.045055 2.324166 -1.626925 -5.886649 6.255173 1.302830 5.698984 -4.381150 -5.315547 -18.717775 -76.665342 -4.816124 -74.781200 -2.375759 0.000000 0.000000 0.000000 12.011274 4.265966 0.496538 4.947567 18.290920 8.427875 6.285387 7.012341 3.585135 -89.601666 61.528625 85.031853 167.868728 81.160508 -167.624645 0.000000 0.000000 0.000000 
4.852698 79.975594 -1.479885 0.000000 0.000000 0.000000 6.726605 -82.913681 19.024754 -10.206001 15.827748 8.828780 35.256876 6.998632 -3.186436 -22.463567 8.893920 -20.944874 0.003379 -0.522879 0.341814 0.000000 0.000000 0.000000 9.145400 -81.392434 22.052572 -27.230100 13.868669 -34.805678 40.816678 -4.347981 -9.162539 -13.404978 5.979318 20.889550 2.814778 1.202788 1.379618 0.000000 0.000000 0.000000 4.869804 -79.445086 16.293136 14.931922 3.395831 11.252848 13.251180 2.862864 1.706196 -0.842418 -0.077855 0.575103 0.000000 0.000000 0.000000 15.177565 2.831170 2.345483 2.410129 -1.892866 3.336163 -28.081829 14.908406 -13.694856 0.000000 0.000000 0.000000 15.330484 3.451883 3.136928 -1.512359 -7.738576 9.934346 1.100227 6.400119 -3.137271 3.262228 -20.202960 -78.326226 -1.907073 -74.697244 0.074387 0.000000 0.000000 0.000000 14.649895 2.594180 1.431568 5.053430 18.374722 8.958924 6.999232 6.198237 1.845687 -115.270179 64.844983 109.626708 172.095304 81.637706 -171.627750 0.000000 0.000000 0.000000 
5.546818 81.020233 -1.846672 0.000000 0.000000 0.000000 117.958829 -87.128598 128.740952 -9.320983 16.105827 10.054522 34.628571 9.368575 -3.803102 -20.867573 12.556567 -21.699595 -0.159762 -0.618186 0.358483 0.000000 0.000000 0.000000 107.316936 -86.704074 118.885043 -29.676735 15.127662 -29.845061 37.047971 -2.620858 -8.636790 -12.807670 12.029679 21.381736 1.343396 1.454516 1.008730 0.000000 0.000000 0.000000 57.906549 -86.005414 67.673863 18.679176 0.244488 11.967991 16.033442 1.225898 2.192876 -1.808328 0.261360 0.296965 0.000000 0.000000 0.000000 17.982817 1.229616 2.674224 3.912560 -2.932484 3.879602 -32.629241 13.922038 -11.125842 0.000000 0.000000 0.000000 18.360392 1.735722 3.388687 -1.235115 -9.560588 12.604900 0.401735 5.723839 -1.831505 11.729307 -21.033942 -79.749084 3.837005 -75.965009 4.819520 0.000000 0.000000 0.000000 17.249569 0.924872 1.995921 5.262751 17.892620 9.625370 7.310161 4.828667 1.039835 -128.692184 64.002574 122.557732 178.878829 79.674840 -178.217052 0.000000 0.000000 0.000000 
